<svg width="48" height="48" viewBox="0 0 48 48" xmlns="http://www.w3.org/2000/svg">
  <rect width="48" height="48" rx="10" fill="#ffffff"/>
  <g transform="translate(6, 6) scale(0.0714)">
    <path d="M1363 4891 c-90 -33 -165 -102 -206 -189 l-22 -47 -3 -1009 -2 -1009
    22 -24 c12 -12 27 -23 35 -23 9 0 13 -19 13 -70 0 -51 -4 -70 -13 -70 -8 0
    -23 -11 -35 -23 l-22 -24 2 -1009 3 -1009 28 -56 c32 -67 108 -141 174 -172
    l48 -22 1135 0 1135 0 48 22 c66 31 142 105 174 172 l28 56 0 2135 0 2135 -28
    56 c-32 67 -108 141 -174 172 l-48 22 -1120 2 c-1077 2 -1122 2 -1172 -16z
    m2262 -132 c52 -15 119 -82 134 -134 6 -22 11 -93 11 -157 l0 -118 -1250 0
    -1250 0 0 125 c0 137 10 178 58 229 15 16 45 37 67 47 38 18 90 19 1115 19
    757 0 1087 -3 1115 -11z m-1062 -1271 c14 -13 157 -252 318 -533 208 -361 294
    -518 293 -538 -1 -18 -13 -39 -33 -57 -20 -19 -31 -38 -31 -56 0 -16 38 -94
    95 -191 l94 -163 -779 0 -779 0 95 164 c52 91 94 176 94 190 0 16 -13 39 -35
    60 -53 54 -65 23 140 376 65 113 139 241 165 285 25 44 92 161 149 260 105
    182 137 225 171 225 10 0 30 -10 43 -22z m866 -1770 c56 -98 65 -138 37 -166
    -15 -16 -86 -17 -938 -20 -812 -2 -924 -1 -944 13 -44 29 -41 55 21 164 l56
    101 857 0 858 0 53 -92z m341 -1145 c0 -65 -5 -136 -11 -158 -15 -52 -82 -119
    -134 -134 -28 -8 -358 -11 -1113 -11 -1174 0 -1111 -3 -1176 58 -53 50 -66 93
    -66 235 l0 127 1250 0 1250 0 0 -117z" fill="#000000"/>
    <path d="M2050 4610 c-29 -29 -26 -74 6 -99 35 -27 59 -26 89 4 31 30 32 65 2
    93 -29 27 -71 28 -97 2z" fill="#000000"/>
    <path d="M2330 4610 c-29 -29 -26 -74 6 -99 24 -19 40 -21 184 -21 144 0 160
    2 184 21 32 25 35 70 6 99 -18 18 -33 20 -190 20 -157 0 -172 -2 -190 -20z" fill="#000000"/>
    <path d="M2892 4607 c-12 -13 -22 -33 -22 -46 0 -27 42 -71 68 -71 33 0 72 38
    72 71 0 62 -75 92 -118 46z" fill="#000000"/>
  </g>
</svg>

